<?xml version="1.0" standalone="no"?>
<svg xmlns="http://www.w3.org/2000/svg" viewBox="0 0 248.288 48.166666666666664" width="248.288" height="48.166666666666664"><rect fill="none" stroke="#fea701" stroke-width="3" width="245.288" height="45.166666666666664" x="1.5" y="1.5"></rect><g fill="#fe4e01" color="#fe4e01" transform="translate(12, 12) scale(0.6041667)"><svg width="48.0" height="40.0" x="0.0" y="0.0" viewBox="0 0 48 40"><path fill="currentColor" fill-rule="evenodd" d="M41.576 0L12.872 28.703v-2.95L38.625 0h-4.1l-10.9 10.898L12.725 0h-4.1l12.949 12.95-1.476 1.474L5.675 0h-4.1l16.474 16.475-1.475 1.475L0 1.376V40h2.9V8.378l2.087 2.086V40h2.9V13.364l2.086 2.087V40h2.9v-.146l10.752-10.752L34.525 40h2.951V15.253l2.086-2.087V40h2.9V10.266l2.087-2.086V40h2.898V5.434h-.153l.153-.154V1.178L12.872 35.754v-2.95L45.675 0h-4.1zm-8.849 20l1.848-1.848v3.697L32.727 20zm-19.855-1.65L14.522 20l-1.65 1.65V18.35zm16.329 5.176l1.476-1.474 3.898 3.899v2.952l-5.374-5.377zm-3.526 3.526l1.475-1.476 7.425 7.426v2.95l-8.9-8.9z"></path></svg></g><line x1="51.5" y1="0" x2="51.5" y2="100%" stroke="#fea701" stroke-width="3"></line><path fill="#fe4e01" fill-rule="nonzero" d="M15.70 18.19L12.05 18.48L12.05 4.97L8.69 18.34L6.53 18.34L2.90 4.92L2.90 18.19L0 18.34L0 0.50L5.16 0.36L8.14 11.50L10.99 0.77L15.70 0.48L15.70 18.19ZM22.58 18.19L19.06 18.48L19.06 0.62L22.58 0.34L22.58 18.19ZM37.25 18.19L34.34 18.48L29.09 7.22L29.09 18.19L25.94 18.34L25.94 0.48L29.62 0.34L34.27 11.04L34.27 0.62L37.25 0.34L37.25 18.19ZM46.44 18.19L42.94 18.48L42.94 3.14L39.26 3.14L39.53 0.34L50.09 0.34L49.80 3.14L46.44 3.14L46.44 18.19ZM55.58 18.19L52.06 18.48L52.06 0.62L55.58 0.34L55.58 18.19ZM63.84 18.67Q60.74 18.67 59.48 15.86Q58.22 13.06 58.22 8.95L58.22 8.95Q58.22 6.74 58.80 4.70Q59.38 2.66 60.66 1.33Q61.94 0 63.91 0L63.91 0Q65.42 0 66.56 0.94Q67.70 1.87 68.32 3.37Q68.93 4.87 68.93 6.50L68.93 6.50L65.52 6.67Q65.52 5.59 65.16 4.21Q64.80 2.83 63.72 2.83L63.72 2.83Q62.59 2.83 62.16 4.63Q61.73 6.43 61.73 8.95L61.73 8.95Q61.73 12.07 62.21 13.96Q62.69 15.84 64.06 15.84L64.06 15.84Q65.02 15.84 65.42 14.70Q65.83 13.56 65.95 11.93L65.95 11.93L68.95 12.22Q68.95 13.94 68.38 15.42Q67.80 16.90 66.65 17.78Q65.50 18.67 63.84 18.67L63.84 18.67ZM71.18 18.34L71.18 15.72Q71.81 14.90 73.25 13.22L73.25 13.22Q74.81 11.45 75.76 10.19Q76.70 8.93 77.36 7.55Q78.02 6.17 78.02 4.85L78.02 4.85Q78.02 4.10 77.56 3.47Q77.09 2.83 76.18 2.83L76.18 2.83Q75.26 2.83 74.57 3.71Q73.87 4.58 73.68 5.81L73.68 5.81L70.80 4.87Q71.04 3.58 71.76 2.46Q72.48 1.34 73.63 0.67Q74.78 0 76.25 0L76.25 0Q77.76 0 78.94 0.62Q80.11 1.25 80.77 2.36Q81.43 3.48 81.43 4.90L81.43 4.90Q81.43 7.49 79.66 10.08Q77.88 12.67 75.07 15.38L75.07 15.38L81.29 15.38L81 18.34L71.18 18.34ZM88.94 18.67Q85.82 18.67 84.62 15.92Q83.42 13.18 83.42 9.29L83.42 9.29Q83.42 5.42 84.61 2.71Q85.80 0 88.94 0L88.94 0Q92.09 0 93.30 2.71Q94.51 5.42 94.51 9.26L94.51 9.26Q94.51 13.15 93.30 15.91Q92.09 18.67 88.94 18.67L88.94 18.67ZM88.94 15.84Q89.71 15.84 90.18 15.29Q90.65 14.74 90.89 13.18Q91.13 11.62 91.13 8.66L91.13 8.66Q91.13 5.83 90.71 4.33Q90.29 2.83 88.94 2.83L88.94 2.83Q87.60 2.83 87.20 4.28Q86.81 5.74 86.81 8.38L86.81 8.38Q86.81 11.45 87.02 13.06Q87.24 14.66 87.70 15.25Q88.15 15.84 88.94 15.84L88.94 15.84ZM97.03 18.34L97.03 15.72Q97.66 14.90 99.10 13.22L99.10 13.22Q100.66 11.45 101.60 10.19Q102.55 8.93 103.21 7.55Q103.87 6.17 103.87 4.85L103.87 4.85Q103.87 4.10 103.40 3.47Q102.94 2.83 102.02 2.83L102.02 2.83Q101.11 2.83 100.42 3.71Q99.72 4.58 99.53 5.81L99.53 5.81L96.65 4.87Q96.89 3.58 97.61 2.46Q98.33 1.34 99.48 0.67Q100.63 0 102.10 0L102.10 0Q103.61 0 104.78 0.62Q105.96 1.25 106.62 2.36Q107.28 3.48 107.28 4.90L107.28 4.90Q107.28 7.49 105.50 10.08Q103.73 12.67 100.92 15.38L100.92 15.38L107.14 15.38L106.85 18.34L97.03 18.34ZM109.54 18.34L109.54 15.72Q110.16 14.90 111.60 13.22L111.60 13.22Q113.16 11.45 114.11 10.19Q115.06 8.93 115.72 7.55Q116.38 6.17 116.38 4.85L116.38 4.85Q116.38 4.10 115.91 3.47Q115.44 2.83 114.53 2.83L114.53 2.83Q113.62 2.83 112.92 3.71Q112.22 4.58 112.03 5.81L112.03 5.81L109.15 4.87Q109.39 3.58 110.11 2.46Q110.83 1.34 111.98 0.67Q113.14 0 114.60 0L114.60 0Q116.11 0 117.29 0.62Q118.46 1.25 119.12 2.36Q119.78 3.48 119.78 4.90L119.78 4.90Q119.78 7.49 118.01 10.08Q116.23 12.67 113.42 15.38L113.42 15.38L119.64 15.38L119.35 18.34L109.54 18.34ZM128.02 12.72L121.27 12.72L121.27 9.91L128.02 9.91L128.02 12.72ZM136.27 18.67Q133.58 18.67 132.24 16.94Q130.90 15.22 130.90 12.41L130.90 12.41L130.90 0.48L134.42 0.34L134.42 12.70Q134.42 13.63 134.53 14.28Q134.64 14.93 135.07 15.38Q135.50 15.84 136.39 15.84L136.39 15.84Q137.23 15.84 137.63 15.37Q138.02 14.90 138.12 14.27Q138.22 13.63 138.22 12.65L138.22 12.65L138.22 0.62L141.43 0.34L141.43 12.00Q141.43 14.54 140.44 16.61Q139.44 18.67 136.27 18.67L136.27 18.67ZM144.67 18.48L144.67 0.34L146.93 0.34Q149.64 0.34 151.25 0.56Q152.86 0.79 154.09 1.97Q155.33 3.14 155.33 5.74L155.33 5.74Q155.33 8.09 154.28 9.30Q153.24 10.51 151.72 10.88Q150.19 11.26 148.20 11.26L148.20 11.26L148.20 18.19L144.67 18.48ZM148.22 8.40L148.82 8.40Q150.22 8.40 151.02 7.82Q151.82 7.25 151.82 5.71L151.82 5.71Q151.82 4.20 151.08 3.67Q150.34 3.14 148.73 3.14L148.73 3.14L148.22 3.14L148.22 8.40ZM157.46 18.34L157.46 0.34L161.50 0.34Q164.76 0.34 166.25 1.61Q167.74 2.88 167.74 4.97L167.74 4.97Q167.74 6.29 167.22 7.30Q166.70 8.30 165.79 8.76L165.79 8.76Q166.94 9.36 167.62 10.36Q168.29 11.35 168.29 13.30L168.29 13.30Q168.29 18.34 160.34 18.34L160.34 18.34L157.46 18.34ZM160.87 7.66L161.71 7.66Q163.10 7.66 163.79 7.20Q164.47 6.74 164.47 5.33L164.47 5.33Q164.47 4.08 163.69 3.61Q162.91 3.14 161.57 3.14L161.57 3.14L160.87 3.14L160.87 7.66ZM160.99 15.53L161.64 15.53Q163.37 15.53 164.14 14.68Q164.90 13.82 164.90 12.82L164.90 12.82Q164.90 11.26 164.08 10.74Q163.25 10.22 161.76 10.22L161.76 10.22L160.99 10.22L160.99 15.53Z" transform="translate(65 14.748)"></path></svg>